#!OML:ASF Y:\EmotionMaleHayes\Project 1\Capture day 1\Session 1\Male1.ASF
:FULLY-SPECIFIED
:DEGREES
598
root 16.8844 15.5593 8.76538 15.4151 58.9838 16.4441
lowerback 6.77912 -1.50093 -18.0288
upperback 2.88056 -2.99013 -2.56702
thorax 0.0967664 -1.59879 7.50134
lowerneck -19.5025 9.82739 10.5604
upperneck 22.3807 13.029 -8.67766
head 11.8598 5.78884 -2.75002
rclavicle -6.12257e-014 2.38542e-014
rhumerus -80.6781 25.3279 -82.6477
rradius 55.676
rwrist -10.2041
rhand -6.51796 -30.2003
rfingers 7.12502
rthumb 19.3344 -59.2591
lclavicle -6.12257e-014 2.38542e-014
lhumerus 2.48719 -26.6562 61.3492
lradius 86.059
lwrist 14.143
lhand -32.3064 -29.2515
lfingers 7.12502
lthumb -5.54453 0.655926
rfemur -35.6322 -0.834213 -4.76491
rtibia 27.227
rfoot -4.59869 3.54363
rtoes 6.67919
lfemur 28.681 -8.09849 -39.3689
ltibia 15.9275
lfoot -14.7091 -18.353
ltoes 29.105
599
root 17.1017 15.5195 8.97059 13.8021 58.7624 14.9513
lowerback 6.97485 -1.38807 -17.5444
upperback 2.76713 -2.87779 -2.36498
thorax -0.187356 -1.51628 7.46544
lowerneck -18.4869 9.73147 10.3488
upperneck 21.836 13.0249 -8.73368
head 11.4454 5.80868 -2.77617
rclavicle 1.46107e-014 2.22639e-014
rhumerus -79.9148 25.6305 -82.0728
rradius 55.4478
rwrist -9.59883
rhand -6.48077 -30.0847
rfingers 7.12502
rthumb 19.3701 -59.14
lclavicle 1.46107e-014 2.22639e-014
lhumerus 0.598551 -26.5222 62.2017
lradius 86.3775
lwrist 14.0143
lhand -32.6225 -29.2378
lfingers 7.12502
lthumb -5.84972 0.661462
rfemur -36.7342 -0.26312 -3.47382
rtibia 30.7785
rfoot -3.96456 4.24583
rtoes 6.61155
lfemur 29.3199 -7.98584 -38.7992
ltibia 17.3511
lfoot -13.2869 -17.474
ltoes 29.6956
600
root 17.3227 15.4874 9.16643 12.2871 58.6783 13.5301
lowerback 6.91948 -1.44895 -16.8867
upperback 2.90095 -2.8931 -2.27569
thorax -0.0435211 -1.54065 7.19775
lowerneck -18.4081 10.098 11.3398
upperneck 21.7448 13.4635 -9.49059
head 11.5864 6.00039 -3.12734
rclavicle 5.78463e-014 1.90833e-014
rhumerus -78.3056 25.7444 -81.3438
rradius 55.1509
rwrist -8.75307
rhand -6.61551 -30.2662
rfingers 7.12502
rthumb 19.2406 -59.3344
lclavicle 5.78463e-014 1.90833e-014
lhumerus -1.09701 -26.1473 62.8026
lradius 86.539
lwrist 13.838
lhand -33.0431 -29.0872
lfingers 7.12502
lthumb -6.25587 0.800413
rfemur -37.6612 0.0850553 -2.19723
rtibia 34.316
rfoot -4.47095 3.78413
rtoes 3.16653
lfemur 29.6574 -7.94029 -38.2477
ltibia 19.2736
lfoot -11.7399 -16.5422
ltoes 29.2953
601
root 17.5419 15.4631 9.35472 10.461 58.8516 11.7437
lowerback 7.12541 -1.60122 -16.151
upperback 3.03894 -3.07869 -2.00297
thorax 0.00354434 -1.64359 7.10203
lowerneck -18.3709 10.3909 11.9354
upperneck 21.5537 13.8466 -10.0609
head 11.6515 6.15652 -3.35668
rclavicle -1.10127e-013 -1.59028e-014
rhumerus -76.2025 25.8609 -80.337
rradius 54.7864
rwrist -7.72834
rhand -6.73633 -30.496
rfingers 7.12502
rthumb 19.1244 -59.5758
lclavicle -1.10127e-013 -1.59028e-014
lhumerus -3.19291 -25.3709 63.8236
lradius 86.652
lwrist 13.2565
lhand -33.1545 -29.2273
lfingers 7.12502
lthumb -6.36333 0.657099
rfemur -37.9721 0.1848 -0.622846
rtibia 37.1507
rfoot -5.86651 2.31157
rtoes -5.24958
lfemur 29.6243 -7.90167 -37.2852
ltibia 21.858
lfoot -10.0884 -15.4107
ltoes 27.1634
602
root 17.7597 15.4463 9.53955 8.30102 59.1166 9.68747
lowerback 7.37977 -1.79154 -15.2888
upperback 3.27336 -3.30118 -1.6697
thorax 0.128248 -1.77369 7.00072
lowerneck -18.1473 10.5487 12.077
upperneck 21.1379 14.0865 -10.3555
head 11.5201 6.25472 -3.44719
rclavicle 2.18663e-014 3.65764e-014
rhumerus -73.7963 25.9189 -79.312
rradius 54.2469
rwrist -6.52598
rhand -6.86704 -30.775
rfingers 7.12502
rthumb 18.9987 -59.8671
lclavicle 2.18663e-014 3.65764e-014
lhumerus -5.50384 -24.533 64.9576
lradius 86.7589
lwrist 12.4489
lhand -33.3102 -29.4374
lfingers 7.12502
lthumb -6.51365 0.442428
rfemur -37.5396 0.144995 1.17603
rtibia 39.0163
rfoot -7.56054 0.288253
rtoes -15.5389
lfemur 29.2687 -7.72266 -35.9408
ltibia 25.0251
lfoot -7.97513 -14.2703
ltoes 24.6892
603
root 17.9701 15.4336 9.72559 5.71297 59.1473 7.27194
lowerback 7.76663 -1.84638 -14.4045
upperback 3.48196 -3.36603 -1.23464
thorax 0.116135 -1.8144 6.99505
lowerneck -18.0655 10.7995 12.2765
upperneck 20.9691 14.4722 -10.6964
head 11.539 6.40985 -3.53042
rclavicle 5.92378e-014 3.26007e-014
rhumerus -71.1945 25.6494 -78.0752
rradius 53.3385
rwrist -5.0008
rhand -7.36755 -30.5637
rfingers 7.12502
rthumb 18.5173 -59.7024
lclavicle 5.92378e-014 3.26007e-014
lhumerus -7.90864 -23.9728 66.2305
lradius 86.6337
lwrist 11.7755
lhand -33.8437 -29.4944
lfingers 7.12502
lthumb -7.02873 0.368923
rfemur -36.7521 0.393249 3.2506
rtibia 40.4426
rfoot -8.40385 1.09683
rtoes -15.4077
lfemur 28.691 -7.29077 -34.2691
ltibia 28.5096
lfoot -5.7095 -12.9247
ltoes 21.8437
604
root 18.1876 15.4334 9.9018 2.37342 59.6385 4.02615
lowerback 8.30645 -2.04259 -12.8938
upperback 3.72833 -3.58467 -0.740208
thorax 0.0484823 -1.92102 6.71721
lowerneck -18.1588 10.9771 12.5771
upperneck 20.8731 14.7175 -11.0646
head 11.6138 6.4984 -3.65941
rclavicle 4.31363e-014 -1.59028e-015
rhumerus -68.2958 24.8307 -76.7138
rradius 52.1541
rwrist -3.19438
rhand -8.33786 -29.7767
rfingers 7.12502
rthumb 17.5837 -59.0015
lclavicle 4.31363e-014 -1.59028e-015
lhumerus -10.3288 -23.398 67.646
lradius 86.1761
lwrist 11.0207
lhand -34.2185 -29.5646
lfingers 7.12502
lthumb -7.39044 0.286304
rfemur -35.2093 0.347912 5.75601
rtibia 41.0762
rfoot -9.48248 0.831942
rtoes -21.0959
lfemur 28.0567 -7.27454 -32.138
ltibia 32.1301
lfoot -3.55127 -11.4866
ltoes 18.0912
605
root 18.3983 15.4422 10.0561 -0.53982 59.5846 1.16032
lowerback 8.79782 -2.1114 -11.5355
upperback 3.95519 -3.623 -0.359213
thorax -0.051094 -1.9322 6.388
lowerneck -18.0561 11.1204 12.448
upperneck 20.4292 14.8753 -10.9435
head 11.4255 6.58175 -3.56557
rclavicle -9.74045e-015 -7.95139e-015
rhumerus -65.1861 23.7781 -75.4621
rradius 50.9121
rwrist -1.25363
rhand -9.26851 -29.1254
rfingers 7.12502
rthumb 16.688 -58.4281
lclavicle -9.74045e-015 -7.95139e-015
lhumerus -12.5685 -22.8082 68.9722
lradius 85.2972
lwrist 10.2875
lhand -34.3596 -29.6029
lfingers 7.12502
lthumb -7.52663 0.243225
rfemur -33.7502 1.00454 7.6317
rtibia 41.4154
rfoot -10.56 1.18104
rtoes -15.9033
lfemur 27.0647 -6.79198 -30.3882
ltibia 35.7849
lfoot -1.5975 -10.0999
ltoes 14.6115
606
root 18.6021 15.4582 10.2064 -3.70471 59.7595 -1.98474
lowerback 9.38459 -2.27608 -10.0798
upperback 4.16291 -3.77604 0.126224
thorax -0.203262 -1.99546 6.12518
lowerneck -18.4267 11.4156 13.0313
upperneck 20.4888 15.2417 -11.4963
head 11.6737 6.71023 -3.76907
rclavicle 7.15625e-014 1.11319e-014
rhumerus -62.0328 22.4651 -74.1129
rradius 49.6185
rwrist 0.811679
rhand -10.1907 -28.47
rfingers 7.12502
rthumb 15.8 -57.8452
lclavicle 7.15625e-014 1.11319e-014
lhumerus -14.6167 -22.2663 70.3629
lradius 83.8756
lwrist 9.61517
lhand -34.2626 -29.6666
lfingers 7.12502
lthumb -7.43303 0.18286
rfemur -32.0977 1.40042 9.77431
rtibia 41.5417
rfoot -11.6017 0.959727
rtoes -17.0278
lfemur 25.914 -6.34973 -28.2854
ltibia 39.5112
lfoot -0.0489082 -9.01034
ltoes 11.4606
607
root 18.8116 15.479 10.3432 -8.6912 59.9674 -6.95292
lowerback 10.2182 -2.48571 -7.48198
upperback 4.41579 -3.87843 0.788852
thorax -0.530218 -2.01126 5.41578
lowerneck -17.9596 11.5281 12.5375
upperneck 19.8658 15.4624 -11.2875
head 11.3166 6.82598 -3.58986
rclavicle 9.22361e-014 -2.8625e-014
rhumerus -59.0889 20.4459 -72.702
rradius 48.3753
rwrist 3.00781
rhand -11.516 -28.1467
rfingers 7.12502
rthumb 14.5233 -57.6183
lclavicle 9.22361e-014 -2.8625e-014
lhumerus -16.6049 -21.7384 72.0786
lradius 82.0661
lwrist 8.47189
lhand -34.1686 -29.1143
lfingers 7.12502
lthumb -7.3423 0.738333
rfemur -29.8494 1.82258 12.9637
rtibia 41.2435
rfoot -12.6527 0.515766
rtoes -20.1117
lfemur 25.0395 -6.01154 -25.1047
ltibia 43.0112
lfoot 0.659274 -7.81835
ltoes 8.36982
608
root 19.0304 15.5297 10.4619 -8.80436 60.9075 -6.95009
lowerback 10.4342 -2.65792 -7.20223
upperback 4.47538 -4.09204 0.665833
thorax -0.586301 -2.10993 5.15919
lowerneck -18.0552 11.4102 12.3683
upperneck 19.682 15.2701 -11.1669
head 11.2138 6.73912 -3.55382
rclavicle 1.15494e-013 -2.94201e-014
rhumerus -56.46 17.7326 -71.4939
rradius 47.2667
rwrist 5.22117
rhand -12.7859 -28.2801
rfingers 7.12502
rthumb 13.2996 -57.8357
lclavicle 1.15494e-013 -2.94201e-014
lhumerus -18.3214 -21.5319 73.8242
lradius 79.932
lwrist 7.38848
lhand -33.9475 -27.8523
lfingers 7.12502
lthumb -7.12892 2.00768
rfemur -28.2014 0.909686 12.7732
rtibia 40.9364
rfoot -13.6526 0.69444
rtoes -21.6994
lfemur 23.1548 -5.97139 -25.2263
ltibia 46.8592
lfoot 0.240393 -6.15481
ltoes 4.40659
609
root 19.2347 15.5744 10.6009 -13.459 60.5748 -11.7204
lowerback 10.7724 -2.58284 -4.69007
upperback 4.76373 -3.74545 1.20073
thorax -0.663834 -1.90866 4.28786
lowerneck -18.2778 11.2724 12.2447
upperneck 19.688 15.0346 -10.9985
head 11.1997 6.63263 -3.51096
rclavicle 2.46493e-014 -5.56597e-015
rhumerus -54.2197 14.7477 -70.5941
rradius 46.6067
rwrist 6.90683
rhand -13.6962 -28.7606
rfingers 7.12502
rthumb 12.422 -58.3715
lclavicle 2.46493e-014 -5.56597e-015
lhumerus -19.6085 -21.5044 75.462
lradius 77.4149
lwrist 6.46809
lhand -32.9033 -26.4872
lfingers 7.12502
lthumb -6.12086 3.40433
rfemur -26.2174 1.8885 15.8338
rtibia 40.3935
rfoot -14.5706 0.088731
rtoes -22.0641
lfemur 21.8388 -5.14021 -21.9313
ltibia 50.0762
lfoot -0.59485 -4.63558
ltoes 10.2284
610
root 19.4154 15.6336 10.7375 -16.5479 60.4793 -15.1606
lowerback 11.3679 -2.39696 -3.28388
upperback 4.59797 -3.3624 1.86403
thorax -1.2501 -1.68643 4.1891
lowerneck -18.6091 11.0691 11.9633
upperneck 20.1173 14.8325 -10.9368
head 11.3661 6.50906 -3.47306
rclavicle 8.48811e-014 -1.27222e-014
rhumerus -52.5316 11.7428 -69.5799
rradius 46.1597
rwrist 8.07312
rhand -14.5431 -29.149
rfingers 7.12502
rthumb 11.6054 -58.8077
lclavicle 8.48811e-014 -1.27222e-014
lhumerus -21.2069 -21.1924 77.791
lradius 74.6869
lwrist 4.98921
lhand -31.1183 -24.8594
lfingers 7.12502
lthumb -4.39735 5.07496
rfemur -24.5874 2.44591 18.0033
rtibia 39.6004
rfoot -15.2447 -0.546541
rtoes -22.3334
lfemur 19.6689 -4.27477 -19.2668
ltibia 53.3802
lfoot -2.46396 -2.85213
ltoes 10.356
